<mxfile host="Electron" agent="Mozilla/5.0 (Windows NT 10.0; Win64; x64) AppleWebKit/537.36 (KHTML, like Gecko) draw.io/26.0.4 Chrome/128.0.6613.186 Electron/32.2.5 Safari/537.36" version="26.0.4">
  <diagram name="Page-1" id="EYn9lPKlorT9rFPQCNi2">
    <mxGraphModel dx="819" dy="482" grid="1" gridSize="10" guides="1" tooltips="1" connect="1" arrows="1" fold="1" page="1" pageScale="1" pageWidth="827" pageHeight="1169" math="0" shadow="0">
      <root>
        <mxCell id="0" />
        <mxCell id="1" parent="0" />
        <mxCell id="4m3qHLkBoHp1KC_wKlsO-17" value="" style="endArrow=none;dashed=1;html=1;dashPattern=1 3;strokeWidth=1;rounded=0;strokeColor=#666666;" edge="1" parent="1">
          <mxGeometry width="50" height="50" relative="1" as="geometry">
            <mxPoint x="140" y="270" as="sourcePoint" />
            <mxPoint x="140" y="130" as="targetPoint" />
          </mxGeometry>
        </mxCell>
        <mxCell id="4m3qHLkBoHp1KC_wKlsO-18" value="" style="endArrow=none;dashed=1;html=1;dashPattern=1 3;strokeWidth=1;rounded=0;strokeColor=#666666;" edge="1" parent="1">
          <mxGeometry width="50" height="50" relative="1" as="geometry">
            <mxPoint x="170" y="270" as="sourcePoint" />
            <mxPoint x="170" y="130" as="targetPoint" />
          </mxGeometry>
        </mxCell>
        <mxCell id="4m3qHLkBoHp1KC_wKlsO-3" value="Tx" style="text;html=1;align=center;verticalAlign=middle;whiteSpace=wrap;rounded=0;fontColor=#3399FF;fontSize=10;" vertex="1" parent="1">
          <mxGeometry x="70" y="160" width="30" height="30" as="geometry" />
        </mxCell>
        <mxCell id="4m3qHLkBoHp1KC_wKlsO-5" value="" style="endArrow=none;html=1;rounded=0;fillColor=#dae8fc;strokeColor=#6c8ebf;" edge="1" parent="1">
          <mxGeometry width="50" height="50" relative="1" as="geometry">
            <mxPoint x="100" y="189.72" as="sourcePoint" />
            <mxPoint x="140" y="189.72" as="targetPoint" />
          </mxGeometry>
        </mxCell>
        <mxCell id="4m3qHLkBoHp1KC_wKlsO-6" value="" style="endArrow=none;html=1;rounded=0;fillColor=#dae8fc;strokeColor=#6c8ebf;" edge="1" parent="1">
          <mxGeometry width="50" height="50" relative="1" as="geometry">
            <mxPoint x="140" y="190" as="sourcePoint" />
            <mxPoint x="140" y="150" as="targetPoint" />
          </mxGeometry>
        </mxCell>
        <mxCell id="4m3qHLkBoHp1KC_wKlsO-7" value="" style="endArrow=none;html=1;rounded=0;fillColor=#dae8fc;strokeColor=#6c8ebf;" edge="1" parent="1">
          <mxGeometry width="50" height="50" relative="1" as="geometry">
            <mxPoint x="160" y="189.72" as="sourcePoint" />
            <mxPoint x="280" y="190" as="targetPoint" />
          </mxGeometry>
        </mxCell>
        <mxCell id="4m3qHLkBoHp1KC_wKlsO-8" value="" style="endArrow=none;html=1;rounded=0;fillColor=#dae8fc;strokeColor=#6c8ebf;" edge="1" parent="1">
          <mxGeometry width="50" height="50" relative="1" as="geometry">
            <mxPoint x="160" y="190" as="sourcePoint" />
            <mxPoint x="160" y="150" as="targetPoint" />
          </mxGeometry>
        </mxCell>
        <mxCell id="4m3qHLkBoHp1KC_wKlsO-9" value="" style="endArrow=none;html=1;rounded=0;fillColor=#dae8fc;strokeColor=#6c8ebf;" edge="1" parent="1">
          <mxGeometry width="50" height="50" relative="1" as="geometry">
            <mxPoint x="140" y="150" as="sourcePoint" />
            <mxPoint x="160" y="150" as="targetPoint" />
          </mxGeometry>
        </mxCell>
        <mxCell id="4m3qHLkBoHp1KC_wKlsO-10" value="" style="endArrow=none;html=1;rounded=0;fillColor=#f8cecc;strokeColor=#b85450;" edge="1" parent="1">
          <mxGeometry width="50" height="50" relative="1" as="geometry">
            <mxPoint x="100" y="235" as="sourcePoint" />
            <mxPoint x="170" y="234.62" as="targetPoint" />
          </mxGeometry>
        </mxCell>
        <mxCell id="4m3qHLkBoHp1KC_wKlsO-11" value="" style="endArrow=none;html=1;rounded=0;fillColor=#f8cecc;strokeColor=#b85450;" edge="1" parent="1">
          <mxGeometry width="50" height="50" relative="1" as="geometry">
            <mxPoint x="170" y="234.9" as="sourcePoint" />
            <mxPoint x="170" y="194.9" as="targetPoint" />
          </mxGeometry>
        </mxCell>
        <mxCell id="4m3qHLkBoHp1KC_wKlsO-12" value="" style="endArrow=none;html=1;rounded=0;fillColor=#f8cecc;strokeColor=#b85450;" edge="1" parent="1">
          <mxGeometry width="50" height="50" relative="1" as="geometry">
            <mxPoint x="190" y="234.62" as="sourcePoint" />
            <mxPoint x="280" y="235" as="targetPoint" />
          </mxGeometry>
        </mxCell>
        <mxCell id="4m3qHLkBoHp1KC_wKlsO-13" value="" style="endArrow=none;html=1;rounded=0;fillColor=#f8cecc;strokeColor=#b85450;" edge="1" parent="1">
          <mxGeometry width="50" height="50" relative="1" as="geometry">
            <mxPoint x="190" y="234.9" as="sourcePoint" />
            <mxPoint x="190" y="194.9" as="targetPoint" />
          </mxGeometry>
        </mxCell>
        <mxCell id="4m3qHLkBoHp1KC_wKlsO-14" value="" style="endArrow=none;html=1;rounded=0;fillColor=#f8cecc;strokeColor=#b85450;" edge="1" parent="1">
          <mxGeometry width="50" height="50" relative="1" as="geometry">
            <mxPoint x="170" y="194.9" as="sourcePoint" />
            <mxPoint x="190" y="194.9" as="targetPoint" />
          </mxGeometry>
        </mxCell>
        <mxCell id="4m3qHLkBoHp1KC_wKlsO-15" value="a)" style="text;html=1;align=center;verticalAlign=middle;resizable=0;points=[];autosize=1;strokeColor=none;fillColor=none;" vertex="1" parent="1">
          <mxGeometry x="60" y="120" width="30" height="30" as="geometry" />
        </mxCell>
        <mxCell id="4m3qHLkBoHp1KC_wKlsO-16" value="b)" style="text;html=1;align=center;verticalAlign=middle;resizable=0;points=[];autosize=1;strokeColor=none;fillColor=none;" vertex="1" parent="1">
          <mxGeometry x="310" y="120" width="30" height="30" as="geometry" />
        </mxCell>
        <mxCell id="4m3qHLkBoHp1KC_wKlsO-19" value="" style="endArrow=classicThin;startArrow=classicThin;html=1;rounded=0;startFill=1;endFill=1;" edge="1" parent="1">
          <mxGeometry width="50" height="50" relative="1" as="geometry">
            <mxPoint x="140" y="260" as="sourcePoint" />
            <mxPoint x="170" y="260" as="targetPoint" />
          </mxGeometry>
        </mxCell>
        <mxCell id="4m3qHLkBoHp1KC_wKlsO-20" value="&lt;span style=&quot;font-family: &amp;quot;Google Sans&amp;quot;, Arial, sans-serif; text-align: left; text-wrap: wrap;&quot;&gt;&lt;font style=&quot;color: rgb(0, 0, 0);&quot;&gt;Δ&lt;/font&gt;&lt;/span&gt;T" style="text;html=1;align=center;verticalAlign=middle;resizable=0;points=[];autosize=1;strokeColor=none;fillColor=none;fontSize=10;" vertex="1" parent="1">
          <mxGeometry x="134" y="233" width="40" height="30" as="geometry" />
        </mxCell>
        <mxCell id="4m3qHLkBoHp1KC_wKlsO-25" value="" style="curved=1;endArrow=none;html=1;rounded=0;endFill=0;fillColor=#dae8fc;strokeColor=#6c8ebf;" edge="1" parent="1">
          <mxGeometry width="50" height="50" relative="1" as="geometry">
            <mxPoint x="416" y="190" as="sourcePoint" />
            <mxPoint x="372" y="190" as="targetPoint" />
            <Array as="points">
              <mxPoint x="406" y="270" />
              <mxPoint x="386" y="120" />
            </Array>
          </mxGeometry>
        </mxCell>
        <mxCell id="4m3qHLkBoHp1KC_wKlsO-27" value="" style="curved=1;endArrow=none;html=1;rounded=0;endFill=0;fillColor=#dae8fc;strokeColor=#6c8ebf;" edge="1" parent="1">
          <mxGeometry width="50" height="50" relative="1" as="geometry">
            <mxPoint x="460" y="190" as="sourcePoint" />
            <mxPoint x="416" y="190" as="targetPoint" />
            <Array as="points">
              <mxPoint x="450" y="270" />
              <mxPoint x="430" y="120" />
            </Array>
          </mxGeometry>
        </mxCell>
        <mxCell id="4m3qHLkBoHp1KC_wKlsO-31" value="&lt;span style=&quot;font-family: &amp;quot;Google Sans&amp;quot;, Arial, sans-serif; text-align: left; text-wrap: wrap;&quot;&gt;&lt;font style=&quot;color: rgb(0, 0, 0);&quot;&gt;Δ&lt;/font&gt;&lt;/span&gt;&lt;span style=&quot;color: rgb(32, 33, 34); font-family: sans-serif; text-align: start; text-wrap: wrap; background-color: rgb(255, 255, 255);&quot;&gt;&lt;font&gt;φ&lt;/font&gt;&lt;/span&gt;" style="text;html=1;align=center;verticalAlign=middle;resizable=0;points=[];autosize=1;strokeColor=none;fillColor=none;fontSize=10;" vertex="1" parent="1">
          <mxGeometry x="410" y="220" width="40" height="30" as="geometry" />
        </mxCell>
        <mxCell id="4m3qHLkBoHp1KC_wKlsO-34" value="Tx" style="text;html=1;align=center;verticalAlign=middle;whiteSpace=wrap;rounded=0;fontColor=#3399FF;fontSize=10;" vertex="1" parent="1">
          <mxGeometry x="327" y="161" width="60" height="30" as="geometry" />
        </mxCell>
        <mxCell id="4m3qHLkBoHp1KC_wKlsO-35" value="" style="curved=1;endArrow=none;html=1;rounded=0;endFill=0;fillColor=#f8cecc;strokeColor=#b85450;" edge="1" parent="1">
          <mxGeometry width="50" height="50" relative="1" as="geometry">
            <mxPoint x="420" y="190" as="sourcePoint" />
            <mxPoint x="376" y="190" as="targetPoint" />
            <Array as="points">
              <mxPoint x="410" y="270" />
              <mxPoint x="390" y="120" />
            </Array>
          </mxGeometry>
        </mxCell>
        <mxCell id="4m3qHLkBoHp1KC_wKlsO-36" value="" style="curved=1;endArrow=none;html=1;rounded=0;endFill=0;fillColor=#f8cecc;strokeColor=#b85450;" edge="1" parent="1">
          <mxGeometry width="50" height="50" relative="1" as="geometry">
            <mxPoint x="464" y="190" as="sourcePoint" />
            <mxPoint x="420" y="190" as="targetPoint" />
            <Array as="points">
              <mxPoint x="454" y="270" />
              <mxPoint x="434" y="120" />
            </Array>
          </mxGeometry>
        </mxCell>
        <mxCell id="4m3qHLkBoHp1KC_wKlsO-37" value="" style="endArrow=none;dashed=1;html=1;dashPattern=1 3;strokeWidth=1;rounded=0;strokeColor=#666666;" edge="1" parent="1">
          <mxGeometry width="50" height="50" relative="1" as="geometry">
            <mxPoint x="400" y="250" as="sourcePoint" />
            <mxPoint x="400" y="190" as="targetPoint" />
          </mxGeometry>
        </mxCell>
        <mxCell id="4m3qHLkBoHp1KC_wKlsO-38" value="" style="endArrow=none;dashed=1;html=1;dashPattern=1 3;strokeWidth=1;rounded=0;strokeColor=#666666;" edge="1" parent="1">
          <mxGeometry width="50" height="50" relative="1" as="geometry">
            <mxPoint x="396" y="250" as="sourcePoint" />
            <mxPoint x="396" y="190" as="targetPoint" />
          </mxGeometry>
        </mxCell>
        <mxCell id="4m3qHLkBoHp1KC_wKlsO-39" value="Rx" style="text;html=1;align=center;verticalAlign=middle;resizable=0;points=[];autosize=1;strokeColor=none;fillColor=none;fontColor=#EA6B66;fontSize=10;" vertex="1" parent="1">
          <mxGeometry x="376" y="130" width="40" height="30" as="geometry" />
        </mxCell>
        <mxCell id="4m3qHLkBoHp1KC_wKlsO-40" value="" style="endArrow=none;html=1;rounded=0;" edge="1" parent="1">
          <mxGeometry width="50" height="50" relative="1" as="geometry">
            <mxPoint x="380" y="240" as="sourcePoint" />
            <mxPoint x="420" y="240" as="targetPoint" />
          </mxGeometry>
        </mxCell>
        <mxCell id="4m3qHLkBoHp1KC_wKlsO-41" value="" style="endArrow=classicThin;html=1;rounded=0;endFill=1;" edge="1" parent="1">
          <mxGeometry width="50" height="50" relative="1" as="geometry">
            <mxPoint x="380" y="240" as="sourcePoint" />
            <mxPoint x="396" y="240" as="targetPoint" />
          </mxGeometry>
        </mxCell>
        <mxCell id="4m3qHLkBoHp1KC_wKlsO-42" value="" style="endArrow=none;html=1;rounded=0;startArrow=classicThin;startFill=1;endFill=0;" edge="1" parent="1">
          <mxGeometry width="50" height="50" relative="1" as="geometry">
            <mxPoint x="400" y="240" as="sourcePoint" />
            <mxPoint x="416" y="240" as="targetPoint" />
          </mxGeometry>
        </mxCell>
        <mxCell id="4m3qHLkBoHp1KC_wKlsO-43" value="Rx" style="text;html=1;align=center;verticalAlign=middle;whiteSpace=wrap;rounded=0;fontColor=#EA6B66;fontSize=10;" vertex="1" parent="1">
          <mxGeometry x="70" y="205" width="30" height="30" as="geometry" />
        </mxCell>
        <mxCell id="4m3qHLkBoHp1KC_wKlsO-44" value="&amp;nbsp;&amp;nbsp;" style="text;html=1;align=center;verticalAlign=middle;resizable=0;points=[];autosize=1;strokeColor=none;fillColor=none;" vertex="1" parent="1">
          <mxGeometry x="450" y="140" width="30" height="30" as="geometry" />
        </mxCell>
        <mxCell id="4m3qHLkBoHp1KC_wKlsO-45" value="" style="endArrow=none;html=1;rounded=0;strokeWidth=0.5;fillColor=#f8cecc;strokeColor=#b85450;exitX=0.393;exitY=0.931;exitDx=0;exitDy=0;exitPerimeter=0;" edge="1" parent="1" source="4m3qHLkBoHp1KC_wKlsO-39">
          <mxGeometry width="50" height="50" relative="1" as="geometry">
            <mxPoint x="376" y="170" as="sourcePoint" />
            <mxPoint x="396" y="150" as="targetPoint" />
          </mxGeometry>
        </mxCell>
        <mxCell id="4m3qHLkBoHp1KC_wKlsO-46" value="" style="endArrow=none;html=1;rounded=0;strokeWidth=0.5;fillColor=#dae8fc;strokeColor=#6c8ebf;" edge="1" parent="1">
          <mxGeometry width="50" height="50" relative="1" as="geometry">
            <mxPoint x="365" y="178" as="sourcePoint" />
            <mxPoint x="374" y="180" as="targetPoint" />
          </mxGeometry>
        </mxCell>
      </root>
    </mxGraphModel>
  </diagram>
</mxfile>
